<?xml version="1.0" encoding="UTF-8"?>
<!DOCTYPE svg PUBLIC "-//W3C//DTD SVG 1.1//EN" "http://www.w3.org/Graphics/SVG/1.1/DTD/svg11.dtd">
<!-- Creator: CorelDRAW 2020 (64-Bit) -->
<svg xmlns="http://www.w3.org/2000/svg" xml:space="preserve" width="3571px" height="674px" version="1.1" style="shape-rendering:geometricPrecision; text-rendering:geometricPrecision; image-rendering:optimizeQuality; fill-rule:evenodd; clip-rule:evenodd"
viewBox="0 0 700 770.02"
 xmlns:xlink="http://www.w3.org/1999/xlink"
 xmlns:xodm="http://www.corel.com/coreldraw/odm/2003">
 <defs>
  <style type="text/css">
   <![CDATA[
    .fil1 {fill:none}
    .fil0 {fill:#1F3C4F}
    .fil2 {fill:#42C0E7}
    .fil3 {fill:#1F3C4F;fill-rule:nonzero}
   ]]>
  </style>
 </defs>
 <g id="Слой_x0020_1">
  <metadata id="CorelCorpID_0Corel-Layer"/>
  <g id="_1531027107104">
   <path class="fil0" d="M513.03 0c44.38,0 61.17,39.12 74.49,73.4l116.96 375.16 -93.62 4.51 -97.67 -313.37 -90.1 294.81 -86.97 -25.34 79.67 -258.6c9.42,-25.8 16.29,-58.9 27.23,-87.23 12.26,-31.72 31.49,-63.34 70.01,-63.34zm234.3 585.97l57.38 184.05 -95.07 0 -54.44 -174.65 92.13 -9.4zm-364.75 -18.89l-62.03 202.94 -95.6 0 71.66 -232.59 85.97 29.65z"/>
   <path class="fil0" d="M853.38 418.69l0 -208.94c-1.07,-96.64 76.83,-190.41 173.99,-190.31l53.07 0.04 142.89 0 0.51 90.63 -187.83 0c-62.8,0 -92.83,52.78 -92.83,105.58l0 170.63 -89.8 32.37z"/>
   <path class="fil1" d="M853.63 770.02l88.47 0c0,-81.14 0,-162.27 0,-243.41 -28.81,13.25 -58.22,24.93 -88.47,34.35l0 209.06z"/>
   <path class="fil2" d="M0 223.78c66.96,89.37 150.73,154.51 248.39,199.63 118.62,54.78 235.86,75.1 365.91,75.85 102.55,0.58 210.26,-20.95 306.29,-56.41 66.62,-24.6 120.11,-56.58 177.3,-98.09 37.7,-27.38 90.04,-82.84 116.66,-121.33 -33.05,72.27 -97.9,145.29 -162.96,190.37 -69.89,48.47 -125.03,77.2 -206.6,102.48 -73.75,22.88 -141,31.51 -217.73,34.64 -86.07,3.52 -175,-9.82 -257.21,-35.21 -58.19,-17.97 -115.67,-41.11 -171.26,-78.21 -88.3,-58.93 -148.72,-120.05 -198.79,-213.72z"/>
   <path class="fil3" d="M1506.44 522.57l18.68 69.34 63.52 0 -77.22 -279.82 -77.63 0 -77.63 279.82 61.44 0 17.44 -69.34 71.4 0zm-63.1 -45.66l14.53 -59.37c4.15,-16.19 8.3,-39.86 12.04,-56.88l0.83 0c4.15,17.02 8.72,40.27 12.87,56.88l14.94 59.37 -55.21 0zm306.8 65.18c-8.72,3.32 -18.68,5.81 -31.55,5.81 -29.06,0 -51.07,-20.76 -51.07,-57.71 -0.41,-34.04 19.1,-58.12 50.65,-58.12 14.12,0 24.08,2.91 30.72,5.81l9.14 -45.66c-10.8,-4.57 -27.4,-7.48 -42.76,-7.48 -69.75,0 -109.19,46.92 -109.19,107.53 0,64.76 39.03,103.37 100.47,103.37 21.59,0 40.68,-3.73 50.23,-8.3l-6.64 -45.25zm167.72 0c-8.72,3.32 -18.68,5.81 -31.55,5.81 -29.06,0 -51.06,-20.76 -51.06,-57.71 -0.42,-34.04 19.09,-58.12 50.65,-58.12 14.11,0 24.07,2.91 30.72,5.81l9.13 -45.66c-10.79,-4.57 -27.4,-7.48 -42.76,-7.48 -69.75,0 -109.19,46.92 -109.19,107.53 0,64.76 39.03,103.37 100.47,103.37 21.59,0 40.69,-3.73 50.23,-8.3l-6.64 -45.25zm201.77 -31.56c1.24,-5.39 2.07,-14.11 2.07,-26.15 0,-53.56 -24.91,-100.05 -84.27,-100.05 -62.69,0 -95.9,52.31 -95.9,109.18 0,63.11 36.53,102.13 101.29,102.13 25.33,0 49.41,-4.15 68.5,-11.62l-8.3 -41.52c-14.94,4.98 -31.14,7.89 -50.65,7.89 -27.81,0 -51.48,-12.04 -53.14,-39.86l120.4 0zm-120.4 -41.93c1.25,-17.85 10.8,-42.76 34.88,-42.76 24.9,0 31.96,24.5 31.55,42.76l-66.43 0zm146.14 113.76c13.7,7.89 36.53,13.28 60.2,13.28 53.14,0 83.03,-26.15 83.03,-65.18 -0.42,-27.81 -14.95,-48.16 -51.07,-62.27 -22.83,-9.55 -29.89,-14.53 -29.89,-24.08 0,-9.96 7.89,-16.61 22.83,-16.61 15.37,0 30.73,5.82 39.44,10.38l10.38 -42.34c-11.62,-5.82 -30.72,-11.21 -52.31,-11.21 -47.32,0 -78.05,28.64 -78.05,66.42 0,22.01 13.7,44.42 53.14,59.78 21.59,8.72 27.82,14.12 27.82,24.91 0,10.8 -7.89,17.03 -25.32,17.03 -17.03,0 -38.61,-7.48 -48.99,-13.7l-11.21 43.59zm166.47 0c13.7,7.89 36.54,13.28 60.2,13.28 53.14,0 83.03,-26.15 83.03,-65.18 -0.41,-27.81 -14.94,-48.16 -51.06,-62.27 -22.83,-9.55 -29.89,-14.53 -29.89,-24.08 0,-9.96 7.89,-16.61 22.83,-16.61 15.36,0 30.72,5.82 39.44,10.38l10.38 -42.34c-11.62,-5.82 -30.72,-11.21 -52.31,-11.21 -47.33,0 -78.05,28.64 -78.05,66.42 0,22.01 13.7,44.42 53.14,59.78 21.59,8.72 27.82,14.12 27.82,24.91 0,10.8 -7.89,17.03 -25.33,17.03 -17.02,0 -38.61,-7.48 -48.99,-13.7l-11.21 43.59zm259.89 9.55l60.61 0 0 -113.34 89.26 0 0 -49.41 -89.26 0 0 -66.42 95.49 0 0 -50.65 -156.1 0 0 279.82zm252.83 0l0 -203.02 -60.61 0 0 203.02 60.61 0zm-30.3 -289.78c-18.69,0 -31.97,12.87 -31.56,31.13 -0.41,17.44 12.46,30.72 30.72,30.72 19.93,0 32.8,-13.28 32.39,-30.72 0,-18.26 -12.46,-31.13 -31.55,-31.13zm77.21 289.78l60.62 0 0 -119.15c0,-6.23 0.83,-12.46 2.49,-16.61 4.15,-11.63 13.7,-22 28.64,-22 20.76,0 28.24,17.43 28.24,40.68l0 117.08 61.02 0 0 -123.31c0,-55.63 -26.57,-84.27 -67.25,-84.27 -30.31,0 -49.82,17.02 -58.95,31.13l-0.83 0 -2.91 -26.57 -52.73 0c0.83,18.27 1.66,39.03 1.66,63.52l0 139.5zm386.93 -120.82c0,-45.66 -18.27,-86.76 -83.86,-86.76 -34.87,0 -61.03,9.96 -74.31,17.43l11.2 39.44c12.87,-7.88 31.97,-14.11 51.48,-14.11 27.82,0 34.46,14.11 34.46,26.57l0 3.32c-63.93,0 -111.26,24.08 -111.26,77.22 0,33.21 24.08,61.86 61.86,61.86 22.42,0 41.51,-8.31 54.38,-24.5l1.25 0 3.32 20.35 54.39 0c-2.08,-12.04 -2.91,-29.9 -2.91,-48.58l0 -72.24zm-58.95 50.24c0,3.32 -0.42,7.06 -1.25,9.96 -4.15,12.87 -16.19,21.59 -29.47,21.59 -12.87,0 -23.67,-7.47 -23.67,-24.91 0,-25.74 25.74,-33.21 54.39,-32.8l0 26.16zm105.03 70.58l60.62 0 0 -119.15c0,-6.23 0.83,-12.46 2.49,-16.61 4.15,-11.63 13.7,-22 28.64,-22 20.76,0 28.23,17.43 28.23,40.68l0 117.08 61.03 0 0 -123.31c0,-55.63 -26.57,-84.27 -67.25,-84.27 -30.31,0 -49.82,17.02 -58.96,31.13l-0.83 0 -2.9 -26.57 -52.73 0c0.83,18.27 1.66,39.03 1.66,63.52l0 139.5zm361.19 -49.82c-8.72,3.32 -18.68,5.81 -31.55,5.81 -29.07,0 -51.07,-20.76 -51.07,-57.71 -0.41,-34.04 19.1,-58.12 50.65,-58.12 14.12,0 24.08,2.91 30.72,5.81l9.14 -45.66c-10.8,-4.57 -27.4,-7.48 -42.77,-7.48 -69.74,0 -109.18,46.92 -109.18,107.53 0,64.76 39.02,103.37 100.47,103.37 21.58,0 40.68,-3.73 50.23,-8.3l-6.64 -45.25zm97.56 49.82l0 -203.02 -60.61 0 0 203.02 60.61 0zm-30.31 -289.78c-18.68,0 -31.96,12.87 -31.55,31.13 -0.41,17.44 12.46,30.72 30.72,30.72 19.93,0 32.8,-13.28 32.39,-30.72 0,-18.26 -12.46,-31.13 -31.56,-31.13zm237.06 168.96c0,-45.66 -18.27,-86.76 -83.86,-86.76 -34.88,0 -61.03,9.96 -74.32,17.43l11.21 39.44c12.87,-7.88 31.97,-14.11 51.48,-14.11 27.82,0 34.46,14.11 34.46,26.57l0 3.32c-63.93,0 -111.26,24.08 -111.26,77.22 0,33.21 24.08,61.86 61.86,61.86 22.41,0 41.51,-8.31 54.38,-24.5l1.25 0 3.32 20.35 54.38 0c-2.07,-12.04 -2.9,-29.9 -2.9,-48.58l0 -72.24zm-58.95 50.24c0,3.32 -0.42,7.06 -1.25,9.96 -4.15,12.87 -16.19,21.59 -29.48,21.59 -12.87,0 -23.66,-7.47 -23.66,-24.91 0,-25.74 25.74,-33.21 54.39,-32.8l0 26.16zm105.03 70.58l60.61 0 0 -292.69 -60.61 0 0 292.69z"/>
   <polygon class="fil0" points="853.63,770.02 943.37,770.02 943.37,526.88 853.63,560.96 "/>
  </g>
 </g>
</svg>
