<?xml version="1.0" encoding="utf-8"?>
<!-- Generator: Adobe Illustrator 27.5.0, SVG Export Plug-In . SVG Version: 6.00 Build 0)  -->
<svg version="1.1" xmlns="http://www.w3.org/2000/svg" xmlns:xlink="http://www.w3.org/1999/xlink" x="0px" y="0px"
	 viewBox="0 0 3710 3710" style="enable-background:new 0 0 3710 3710;" xml:space="preserve">
<g id="Background">
	<g>
		<g>
			<rect style="fill:#FFFFFF;" width="3710" height="3710"/>
		</g>
	</g>
</g>
<g id="Illustration">
	<g>
		<linearGradient id="SVGID_1_" gradientUnits="userSpaceOnUse" x1="3371.386" y1="3300.1377" x2="764.0912" y2="855.7976">
			<stop  offset="0" style="stop-color:#DAE3FE"/>
			<stop  offset="1" style="stop-color:#E9EFFD"/>
		</linearGradient>
		<path style="fill:url(#SVGID_1_);" d="M2739.979,3012.729c-315.974,236.432-785.793,187.983-1280.257,154.9
			c-128.771-8.616-193.156-12.923-251.986-31.998c-549.284-178.098-998.984-1158.47-638.827-1904.544
			c218.063-451.722,686.093-720.36,1132.418-768.968c79.131-8.618,621.642-59.115,1062.257,309.461
			c147.453,123.345,230.693,249.569,257.262,291.893C3341.655,1574.542,3366.064,2544.251,2739.979,3012.729z"/>
		<g>
			<g>
				
					<ellipse transform="matrix(0.7071 -0.7071 0.7071 0.7071 -313.87 2144.675)" style="opacity:0.57;fill:#FFFFFF;" cx="2431.917" cy="1451.212" rx="609.423" ry="609.423"/>
				<g>
					
						<linearGradient id="SVGID_00000102515105349338451860000008968288811453035928_" gradientUnits="userSpaceOnUse" x1="2885.0369" y1="849.6218" x2="1713.9248" y2="2404.4626">
						<stop  offset="0" style="stop-color:#FF928E"/>
						<stop  offset="1" style="stop-color:#FE7062"/>
					</linearGradient>
					
						<circle style="fill:url(#SVGID_00000102515105349338451860000008968288811453035928_);" cx="2431.917" cy="1451.212" r="520.12"/>
					<path style="fill:#FFFFFF;" d="M2431.916,1997.383c-301.157,0-546.169-245.009-546.169-546.171
						s245.012-546.171,546.169-546.171s546.169,245.009,546.169,546.171S2733.073,1997.383,2431.916,1997.383z M2431.916,931.093
						c-286.794,0-520.117,233.322-520.117,520.119c0,286.797,233.323,520.119,520.117,520.119s520.116-233.322,520.116-520.119
						C2952.032,1164.415,2718.71,931.093,2431.916,931.093z"/>
				</g>
				<g>
					
						<linearGradient id="SVGID_00000098202477240283253950000007041239619645813685_" gradientUnits="userSpaceOnUse" x1="2885.0366" y1="849.6218" x2="1713.9264" y2="2404.4602">
						<stop  offset="0" style="stop-color:#FF928E"/>
						<stop  offset="1" style="stop-color:#FE7062"/>
					</linearGradient>
					
						<circle style="fill:url(#SVGID_00000098202477240283253950000007041239619645813685_);" cx="2431.917" cy="1451.212" r="317.09"/>
					<path style="fill:#FFFFFF;" d="M2431.916,1794.354c-189.208,0-343.14-153.934-343.14-343.143s153.932-343.138,343.14-343.138
						c189.208,0,343.14,153.93,343.14,343.138S2621.124,1794.354,2431.916,1794.354z M2431.916,1160.175
						c-160.479,0-291.039,130.558-291.039,291.037s130.56,291.042,291.039,291.042c160.48,0,291.039-130.563,291.039-291.042
						S2592.396,1160.175,2431.916,1160.175z"/>
				</g>
				<g>
					
						<linearGradient id="SVGID_00000060003454439715459400000012447381965846723472_" gradientUnits="userSpaceOnUse" x1="2885.0364" y1="849.6219" x2="1713.9272" y2="2404.459">
						<stop  offset="0" style="stop-color:#FF928E"/>
						<stop  offset="1" style="stop-color:#FE7062"/>
					</linearGradient>
					
						<circle style="fill:url(#SVGID_00000060003454439715459400000012447381965846723472_);" cx="2431.917" cy="1451.212" r="122.85"/>
					<path style="fill:#FFFFFF;" d="M2431.916,1600.114c-82.104,0-148.9-66.796-148.9-148.902s66.796-148.902,148.9-148.902
						c82.104,0,148.902,66.796,148.902,148.902S2514.02,1600.114,2431.916,1600.114z M2431.916,1354.411
						c-53.375,0-96.799,43.424-96.799,96.801c0,53.377,43.424,96.801,96.799,96.801c53.375,0,96.801-43.424,96.801-96.801
						C2528.717,1397.834,2485.292,1354.411,2431.916,1354.411z"/>
				</g>
			</g>
			<g>
				
					<linearGradient id="SVGID_00000171695848314475414620000018058978480725301908_" gradientUnits="userSpaceOnUse" x1="-152.2671" y1="4725.6821" x2="-338.0935" y2="5480.5986" gradientTransform="matrix(-0.7071 -0.7071 0.7071 -0.7071 -1192.2574 4633.1733)">
					<stop  offset="0" style="stop-color:#2B3582"/>
					<stop  offset="1" style="stop-color:#150E42"/>
				</linearGradient>
				<polygon style="fill:url(#SVGID_00000171695848314475414620000018058978480725301908_);" points="3170.716,710.497 
					3187.141,726.922 2565.18,1348.883 2548.755,1332.459 				"/>
				
					<linearGradient id="SVGID_00000021813083639966402040000006470198550501487495_" gradientUnits="userSpaceOnUse" x1="-310.7164" y1="4884.3638" x2="-367.4989" y2="5493.4902" gradientTransform="matrix(-0.7071 -0.7071 0.7071 -0.7071 -1192.2574 4633.1733)">
					<stop  offset="0" style="stop-color:#4F52FF"/>
					<stop  offset="1" style="stop-color:#4042E2"/>
				</linearGradient>
				<path style="fill:url(#SVGID_00000021813083639966402040000006470198550501487495_);" d="M2560.388,1292.828
					c9.423-9.423,53.845,35,44.422,44.422l-164.76,129.528c-6.087,4.785-13.974-3.102-9.189-9.19L2560.388,1292.828z"/>
				
					<linearGradient id="SVGID_00000089562534240639217970000017322327008890097285_" gradientUnits="userSpaceOnUse" x1="-359.7321" y1="5720.7178" x2="-437.149" y2="6551.1973" gradientTransform="matrix(-0.7071 -0.7071 0.7071 -0.7071 -1192.2574 4633.1733)">
					<stop  offset="0" style="stop-color:#4F52FF"/>
					<stop  offset="1" style="stop-color:#4042E2"/>
				</linearGradient>
				<path style="fill:url(#SVGID_00000089562534240639217970000017322327008890097285_);" d="M3186.786,727.277l83.673,8.316
					l-114.867,114.867c-37.635,37.635-90.167,56.405-143.131,51.14l0,0L3186.786,727.277z"/>
				
					<linearGradient id="SVGID_00000181766700111151547060000012427278910781123770_" gradientUnits="userSpaceOnUse" x1="978.9346" y1="5720.7178" x2="901.5178" y2="6551.1958" gradientTransform="matrix(0.7071 0.7071 0.7071 -0.7071 -1682.106 4143.3247)">
					<stop  offset="0" style="stop-color:#4F52FF"/>
					<stop  offset="1" style="stop-color:#4042E2"/>
				</linearGradient>
				<path style="fill:url(#SVGID_00000181766700111151547060000012427278910781123770_);" d="M3170.361,710.853l-8.316-83.673
					l-114.867,114.867c-37.635,37.635-56.405,90.167-51.141,143.13l0,0L3170.361,710.853z"/>
			</g>
		</g>
		<g>
			<path style="fill:#BDD0FB;" d="M615.094,1811.361c4.049-8.422,9.118-20.561,16.356-17.566
				c117.015,48.417,415.572,211.019,517.019,637.956c127.283,535.656,310.262,684.731,493.302,751.399
				c-30.237,12.896-88.632,34.241-162.036,35.143C911.02,3225.279,528.387,1991.714,615.094,1811.361z"/>
			<path style="fill:#FFFFFF;" d="M742.075,1949.037c32.456,53.42,63.786,107.419,92.994,162.431
				c29.506,54.855,57.25,110.536,83.127,166.958c25.647,56.512,50.174,113.472,72.119,171.338
				c22.217,57.769,41.799,116.38,61.242,175.292c19.778,58.775,39.352,118.091,65.375,175.685
				c25.913,57.495,59.465,112.974,102.69,160.983c10.79,11.959,21.85,23.778,33.534,34.86
				c11.473,11.292,23.474,22.105,35.674,32.709c24.517,21.097,50.55,40.685,77.994,58.347
				c54.99,35.198,115.579,62.41,178.255,81.568c6.597,2.016,13.664-1.431,15.787-7.7c2.084-6.155-1.377-12.742-7.749-14.888
				l-0.045-0.015c-15.105-5.07-30.131-10.298-44.86-16.144c-7.415-2.812-14.683-5.93-22.01-8.917
				c-7.198-3.247-14.533-6.23-21.618-9.685c-28.58-13.362-56.138-28.614-82.373-45.727
				c-52.589-33.945-100.112-75.533-141.49-121.327c-20.423-23.126-39.018-47.642-55.562-73.434
				c-16.526-25.805-30.99-52.857-43.841-80.714c-25.72-55.744-45.604-114.302-65.825-172.938
				c-20.306-58.625-41.136-117.403-64.478-175.276c-11.587-28.962-23.722-57.724-36.391-86.264
				c-6.248-14.304-12.787-28.491-19.297-42.686c-6.654-14.136-13.39-28.236-20.244-42.28
				c-27.53-56.132-56.849-111.438-87.965-165.787c-31.39-54.207-64.284-107.604-99.287-159.707c-1.001-1.49-3.082-1.926-4.648-0.975
				C741.657,1945.665,741.184,1947.565,742.075,1949.037z"/>
		</g>
		<g>
			<path style="fill:#BDD0FB;" d="M3111.376,2090.862c-4.002-5.938-9.184-14.579-14.395-11.524
				c-84.225,49.389-294.911,204.988-326.457,539.321c-39.581,419.472-163.382,552.259-296.107,622.648
				c24.501,6.478,71.436,16.292,127.64,8.992C3037.511,3193.746,3197.082,2218.007,3111.376,2090.862z"/>
			<path style="fill:#FFFFFF;" d="M3029.15,2208.927c-19.053,43.982-37.183,88.281-53.581,133.115
				c-16.643,44.749-31.851,89.93-45.551,135.47c-13.515,45.583-26.126,91.384-36.666,137.59
				c-10.758,46.162-19.411,92.675-27.926,139.401c-8.786,46.659-17.356,93.705-31.042,140.148
				c-13.613,46.356-33.281,92.017-61.148,133.073c-6.958,10.229-14.14,20.382-21.876,30.045
				c-7.552,9.799-15.561,19.292-23.744,28.648c-16.467,18.642-34.255,36.306-53.329,52.666
				c-38.24,32.633-81.62,59.829-127.462,81.152c-4.825,2.244-10.598,0.402-12.896-4.114c-2.256-4.434-0.32-9.799,4.319-12.116
				l0.033-0.016c11-5.482,21.922-11.074,32.55-17.104c5.365-2.936,10.584-6.088,15.863-9.146c5.153-3.242,10.437-6.298,15.481-9.685
				c20.406-13.226,39.827-27.773,58.035-43.585c36.54-31.424,68.384-68.085,95.078-107.262c13.119-19.734,24.691-40.32,34.558-61.65
				c9.851-21.338,17.993-43.397,24.815-65.889c13.654-45.01,22.543-91.516,31.683-138.117
				c9.205-46.602,18.794-93.378,30.401-139.741c5.737-23.192,11.913-46.292,18.522-69.282c3.235-11.511,6.704-22.966,10.151-34.423
				c3.563-11.428,7.192-22.838,10.919-34.219c14.995-45.5,31.447-90.57,49.375-135.11c18.154-44.462,37.543-88.475,58.685-131.736
				c0.605-1.237,2.148-1.793,3.448-1.244C3029.106,2206.328,3029.673,2207.715,3029.15,2208.927z"/>
		</g>
		<g>
			<path style="fill:#BDD0FB;" d="M1059.316,800.819c-3.112-17.201,21.292-27.618,35.277-15.149
				c142.015,126.616,479.594,502.407,358.688,1131.82c-151.695,789.693,23.875,1086.717,251.769,1272.536
				c0,0-321.091-95.602-510.814-397.44C728.422,2051.504,1114.65,1106.665,1059.316,800.819z"/>
			<path style="fill:#FFFFFF;" d="M1159.459,1053.139c14.04,89.1,26.051,178.394,34.288,267.942
				c8.776,89.494,14.428,179.18,16.854,268.889c2.03,89.71,2.124,179.438-2.168,269.037
				c-3.829,89.612-12.082,178.979-20.729,268.681c-8.066,89.692-16.778,180.008-14.879,271.374
				c1.8,91.176,16.152,183.63,49.516,271.064c8.344,21.792,17.177,43.536,27.396,64.612c9.774,21.249,20.634,42.128,31.919,62.829
				c22.813,41.314,48.819,81.383,78.128,119.592c58.851,76.3,131.026,144.752,211.387,203.426
				c8.458,6.175,21.074,5.222,28.181-2.129c6.977-7.218,6.045-17.922-1.999-24.153l-0.057-0.044
				c-19.081-14.751-37.945-29.675-55.977-45.278c-9.162-7.678-17.912-15.692-26.833-23.56c-8.566-8.152-17.501-16.018-25.768-24.391
				c-33.712-32.999-64.718-68.015-92.591-104.849c-56.101-73.352-99.879-154.37-131.921-237.848
				c-15.483-41.909-27.387-84.737-35.457-128.213c-8.033-43.485-12.234-87.574-13.542-131.905
				c-2.625-88.712,5.149-178.166,12.473-267.903c7.191-89.765,13.708-180.013,15.942-270.353
				c1.257-45.161,1.58-90.338,0.972-135.496c-0.154-22.58-0.812-45.153-1.422-67.723c-0.86-22.566-1.863-45.124-3.078-67.67
				c-5.05-90.183-13.264-180.187-24.738-269.841c-11.968-89.605-26.669-178.904-45.303-267.56c-0.534-2.535-3.328-4.213-6.243-3.75
				C1160.979,1048.369,1159.077,1050.686,1159.459,1053.139z"/>
		</g>
		<g>
			<g>
				<g>
					
						<rect x="445.8" y="932.025" transform="matrix(0.4604 -0.8877 0.8877 0.4604 -512.0142 1576.6707)" style="fill:#91B3FA;" width="1190.245" height="554.961"/>
					<path style="opacity:0.5;fill:#FFFFFF;" d="M1142.186,665.654l281.885,146.2c-11.767,22.687-0.91,52.514,24.214,65.544
						c0.798,0.414,2.723,1.372,2.743,1.332l-442.326,852.84c0.021-0.04-1.867-1.069-2.665-1.483
						c-25.124-13.03-55.216-5.29-67.18,17.778c-0.176,0.339-0.55,0.678-0.55,0.678l-275.54-142.909
						c20.172-38.893-3.759-55.914-28.882-68.944c-0.798-0.414-1.127-0.154-1.147-0.114l442.326-852.84
						c-0.021,0.04,0.115,0.151,0.913,0.564C1101.101,697.331,1130.419,688.341,1142.186,665.654z"/>
					<g>
						
							<linearGradient id="SVGID_00000094617146228037601000000011328003822783245475_" gradientUnits="userSpaceOnUse" x1="3733.2244" y1="3866.1094" x2="3613.5686" y2="5405.6826" gradientTransform="matrix(0.4604 -0.8877 0.8877 0.4604 -4215.8335 2677.0969)">
							<stop  offset="0" style="stop-color:#50E7B7"/>
							<stop  offset="0.9964" style="stop-color:#323992"/>
						</linearGradient>
						
							<circle style="fill:url(#SVGID_00000094617146228037601000000011328003822783245475_);" cx="1039.853" cy="1208.297" r="174.59"/>
						<g>
							<path style="fill:#FFFFFF;" d="M1136.272,1278.187l-16.389-8.5c-9.545,16.73-22.34,31.536-33.819,40.813
								c-4.099,3.313-10.042,3.003-13.917-0.569l-13.105-12.08c-4.808-4.432-4.546-12.025,0.474-16.213
								c11.166-9.317,22.738-21.969,30.96-37.82c8.535-16.455,9.321-31.62-2.115-37.551c-10.318-5.352-21.371,0.948-39.369,20.636
								c-25.849,28.003-52.224,44.053-80.951,29.153c-25.938-13.453-35.903-42.689-24.133-78.346l-16.39-8.5
								c-5.274-2.735-7.331-9.228-4.596-14.501l4.994-9.629c2.735-5.274,9.227-7.331,14.5-4.596l14.716,7.632
								c8.832-15.48,17.504-25.585,25.449-33.053c4.07-3.826,10.436-3.769,14.549,0.011l12.132,11.151
								c4.678,4.3,4.643,11.665-0.089,15.906c-7.541,6.759-17.017,16.929-25.031,32.381c-10.126,19.523-4.931,29.295,2.321,33.056
								c8.925,4.629,21.135-3.903,42.108-25.231c29.682-30.616,52.553-37.864,79.606-23.833
								c24.822,12.873,37.587,42.852,24.651,81.444l18.34,9.513c5.274,2.735,7.332,9.227,4.596,14.501l-4.995,9.63
								C1148.038,1278.865,1141.546,1280.923,1136.272,1278.187z"/>
						</g>
					</g>
				</g>
				<path style="fill:#FFFFFF;" d="M657.789,1648.733c-0.283-0.031-0.565-0.113-0.832-0.251l-92.371-47.907
					c-0.56-0.292-0.98-0.792-1.171-1.392c-0.189-0.599-0.134-1.25,0.156-1.81l135.32-260.908c0.601-1.165,2.037-1.619,3.201-1.016
					c1.164,0.606,1.619,2.037,1.014,3.202l-134.228,258.802l90.264,46.812c1.165,0.606,1.619,2.037,1.014,3.202
					C659.693,1648.361,658.734,1648.837,657.789,1648.733z"/>
				<path style="fill:#FFFFFF;" d="M1383.825,1085.491c-0.283-0.031-0.564-0.113-0.832-0.251c-1.165-0.606-1.619-2.037-1.015-3.202
					l132.547-255.557l-96.746-50.175c-1.165-0.606-1.619-2.037-1.014-3.202c0.601-1.169,2.036-1.626,3.2-1.016l98.853,51.271
					c0.56,0.292,0.98,0.792,1.171,1.392c0.189,0.6,0.134,1.25-0.156,1.81l-133.64,257.662
					C1385.729,1085.12,1384.771,1085.596,1383.825,1085.491z"/>
			</g>
			<g>
				<g>
					
						<rect x="464.425" y="872.356" transform="matrix(0.6542 -0.7563 0.7563 0.6542 -504.6335 1199.6655)" style="fill:#BDD0FB;" width="1190.245" height="558.612"/>
					<path style="opacity:0.5;fill:#FFFFFF;" d="M1283.925,645.78l240.173,207.727c-16.719,19.331-12.03,51.584,9.375,70.098
						c0.68,0.588,0.63,0.299,3.421,2.653l-628.477,726.641c-2.732-2.423-2.531-2.308-3.21-2.896
						c-21.406-18.514-53.055-18.284-70.054,1.37c-0.25,0.289-1.273,0.228-1.273,0.228l-234.767-203.051
						c28.661-33.137,9.025-55.73-12.381-74.243c-0.68-0.589-1.377-0.887-1.407-0.853l628.476-726.64
						c-0.029,0.034,0.395,0.648,1.076,1.236C1236.283,666.564,1267.206,665.11,1283.925,645.78z"/>
					<g>
						
							<linearGradient id="SVGID_00000093159281524224444640000001855633783510485435_" gradientUnits="userSpaceOnUse" x1="4201.2744" y1="4322.168" x2="4081.6267" y2="5861.6362" gradientTransform="matrix(0.6542 -0.7564 0.7564 0.6542 -5046.2485 1411.9778)">
							<stop  offset="0" style="stop-color:#50E7B7"/>
							<stop  offset="0.9964" style="stop-color:#323992"/>
						</linearGradient>
						
							<circle style="fill:url(#SVGID_00000093159281524224444640000001855633783510485435_);" cx="1058.438" cy="1149.537" r="174.59"/>
						<g>
							<path style="fill:#FFFFFF;" d="M1135.967,1239.929l-13.963-12.077c-13.173,14.052-29.061,25.478-42.381,31.832
								c-4.756,2.269-10.465,0.586-13.402-3.789l-9.938-14.797c-3.646-5.427-1.625-12.751,4.231-15.659
								c13.026-6.466,27.223-16.08,38.904-29.586c12.126-14.02,16.416-28.587,6.672-37.014c-8.792-7.604-21.006-4.047-43.087,10.918
								c-31.65,21.226-61.034,30.705-85.51,9.536c-22.101-19.115-24.995-49.866-5.258-81.81l-13.964-12.078
								c-4.493-3.886-4.985-10.679-1.099-15.172l7.096-8.203c3.887-4.494,10.679-4.985,15.172-1.099l12.537,10.844
								c12.189-13.003,22.972-20.815,32.437-26.232c4.848-2.775,11.027-1.239,14.148,3.394l9.207,13.666
								c3.55,5.27,1.803,12.425-3.785,15.45c-8.905,4.82-20.485,12.509-31.872,25.674c-14.388,16.634-11.606,27.346-5.428,32.69
								c7.604,6.577,21.463,1.117,46.82-14.751c35.987-22.876,59.916-24.61,82.966-4.673c21.148,18.292,26.595,50.417,5.041,84.944
								l15.627,13.515c4.493,3.887,4.985,10.68,1.099,15.173l-7.096,8.205C1147.254,1243.323,1140.461,1243.815,1135.967,1239.929z"
								/>
						</g>
					</g>
				</g>
				<path style="fill:#FFFFFF;" d="M588.568,1488.216c-0.268-0.096-0.523-0.241-0.751-0.438l-81.463-70.458
					c-0.992-0.86-1.101-2.357-0.242-3.35l189.878-219.534c0.857-0.993,2.361-1.111,3.349-0.245c0.992,0.86,1.101,2.358,0.243,3.35
					l-188.326,217.74l79.668,68.902c0.992,0.86,1.101,2.358,0.242,3.35C590.507,1488.297,589.464,1488.537,588.568,1488.216z"/>
				<path style="fill:#FFFFFF;" d="M1420.506,1109.574c-0.267-0.096-0.523-0.242-0.75-0.438c-0.992-0.86-1.101-2.358-0.242-3.35
					l188.327-217.744l-79.67-68.903c-0.992-0.86-1.101-2.357-0.242-3.35c0.857-0.993,2.356-1.112,3.349-0.245l81.465,70.459
					c0.477,0.414,0.769,0.998,0.815,1.626c0.044,0.627-0.16,1.247-0.573,1.724l-189.879,219.538
					C1422.444,1109.655,1421.402,1109.896,1420.506,1109.574z"/>
			</g>
			<g>
				<g>
					<g>
						
							<rect x="502.026" y="807.08" transform="matrix(0.8518 -0.5239 0.5239 0.8518 -406.537 735.8152)" style="fill:#91B3FA;" width="1190.245" height="558.612"/>
						<path style="opacity:0.5;fill:#FFFFFF;" d="M1463.903,672.167l166.36,270.477c-21.769,13.39-27.399,45.467-12.572,69.574
							c0.471,0.766,0.136,0.385,2.088,3.472l-818.326,503.32c-1.874-3.134-1.575-2.732-2.045-3.498
							c-14.827-24.106-44.769-33.456-66.903-19.842c-0.325,0.2-0.98-0.194-0.98-0.194l-162.615-264.388
							c37.319-22.953,25.035-50.504,10.208-74.611c-0.471-0.766-1.42-1.349-1.459-1.326l818.326-503.32
							c-0.039,0.024,0.555,0.826,1.026,1.592C1411.838,677.529,1442.134,685.557,1463.903,672.167z"/>
						<g>
							
								<ellipse transform="matrix(0.7071 -0.7071 0.7071 0.7071 -445.8775 1093.1028)" style="fill:#91B3FA;" cx="1096.553" cy="1084.773" rx="174.59" ry="174.59"/>
							<g>
								<path style="fill:#FFFFFF;" d="M1143.233,1194.338l-9.672-15.725c-16.797,9.426-35.391,15.53-50.007,17.572
									c-5.219,0.729-10.154-2.597-11.637-7.654l-5.014-17.104c-1.84-6.274,2.295-12.648,8.756-13.654
									c14.37-2.237,30.804-7.124,46.014-16.479c15.789-9.711,24.272-22.306,17.522-33.279
									c-6.089-9.901-18.808-10.192-44.374-2.582c-36.577,10.695-67.452,10.872-84.406-16.692
									c-15.309-24.889-8.796-55.082,19.654-79.588l-9.673-15.727c-3.112-5.06-1.532-11.685,3.527-14.797l9.239-5.682
									c5.061-3.113,11.685-1.533,14.797,3.527l8.685,14.119c15.542-8.723,28.179-12.919,38.836-15.23
									c5.459-1.184,10.887,2.143,12.466,7.502l4.658,15.806c1.796,6.095-2.027,12.39-8.267,13.59
									c-9.944,1.911-23.304,5.75-38.131,14.869c-18.733,11.522-19.311,22.574-15.031,29.532
									c5.267,8.563,20.127,7.537,49.089,0.053c41.209-10.961,64.547-5.398,80.513,20.56
									c14.649,23.817,10.156,56.089-20.806,82.511l10.824,17.598c3.113,5.06,1.533,11.686-3.527,14.798l-9.24,5.684
									C1152.971,1200.978,1146.345,1199.399,1143.233,1194.338z"/>
							</g>
						</g>
					</g>
					<path style="fill:#FFFFFF;" d="M544.134,1267.522c-0.489-0.176-0.923-0.514-1.218-0.992l-56.426-91.74
						c-0.329-0.536-0.433-1.182-0.287-1.793c0.145-0.613,0.529-1.143,1.065-1.472l250.347-153.979
						c1.117-0.682,2.577-0.333,3.267,0.78c0.687,1.115,0.339,2.577-0.778,3.266l-248.326,152.736l55.183,89.717
						c0.687,1.115,0.339,2.577-0.778,3.266C545.544,1267.703,544.79,1267.757,544.134,1267.522z"/>
					<path style="fill:#FFFFFF;" d="M1454.633,1155.438c-0.489-0.176-0.923-0.514-1.218-0.992c-0.687-1.115-0.339-2.577,0.778-3.266
						l245.217-150.822l-55.185-89.718c-0.687-1.115-0.339-2.577,0.778-3.266c1.115-0.682,2.577-0.333,3.267,0.78l56.428,91.741
						c0.329,0.536,0.433,1.181,0.287,1.794c-0.145,0.613-0.528,1.143-1.065,1.472l-247.238,152.065
						C1456.042,1155.619,1455.288,1155.674,1454.633,1155.438z"/>
				</g>
				<g>
					<path style="fill:#91B3FA;" d="M843.408,1259.444c14.309,23.265,7.049,53.725-16.216,68.034
						c-23.265,14.309-53.724,7.049-68.033-16.216c-14.31-23.265-7.05-53.725,16.215-68.034
						C798.639,1228.92,829.099,1236.18,843.408,1259.444z"/>
					
						<ellipse transform="matrix(0.9369 -0.3495 0.3495 0.9369 -222.5012 558.0842)" style="fill:#91B3FA;" cx="1435.066" cy="895.539" rx="49.455" ry="49.455"/>
				</g>
			</g>
		</g>
		<g>
			<path style="fill:#BDD0FB;" d="M2383.874,3245.686c-15.521,13.515-39.723,1.93-39.054-18.638
				c7.366-226.513,53-1126.015,320.652-1677.401c19.112-39.372,74.343-41.754,96.385-3.944
				C2901.168,1784.668,3217.613,2519.657,2383.874,3245.686z"/>
			<path style="fill:#FFFFFF;" d="M2699.954,1835.575c3.091,29.701,4.11,59.523,4.591,89.341
				c0.358,29.821,0.025,59.657-1.145,89.464c-2.186,59.623-7.171,119.131-14.036,178.408
				c-6.91,59.278-15.908,118.313-26.589,177.047c-10.677,58.742-23.52,117.072-37.525,175.118l-10.851,43.454l-11.614,43.258
				l-5.843,21.623l-6.241,21.509l-12.516,43.014c-17.638,57.057-35.78,114.001-56.143,170.17
				c-40.095,112.562-85.444,223.271-135.478,331.835c-2.807,6.091-10.018,8.752-16.11,5.945c-6.09-2.807-8.752-10.019-5.945-16.11
				c0.019-0.039,0.069-0.146,0.088-0.186c51.479-107.124,98.35-216.491,140.046-327.838
				c21.163-55.564,40.124-111.929,58.601-168.449l13.146-42.616l6.561-21.315l6.16-21.432l12.26-42.888l11.502-43.1
				c14.88-57.58,28.612-115.489,40.194-173.851c11.586-58.356,21.503-117.057,29.345-176.054
				c7.798-58.996,13.727-118.274,16.866-177.728c1.647-29.724,2.459-59.491,2.582-89.262c0-29.757-0.542-59.582-3.141-89.215
				l-0.003-0.023c-0.03-0.342,0.224-0.644,0.565-0.674C2699.621,1834.991,2699.921,1835.239,2699.954,1835.575z"/>
		</g>
		<g>
			<g>
				
					<linearGradient id="SVGID_00000071524834830504075920000014524179782680325286_" gradientUnits="userSpaceOnUse" x1="-107.9779" y1="493.8319" x2="225.2703" y2="107.0265" gradientTransform="matrix(0.9318 -0.3629 0.3629 0.9318 803.5084 1613.4146)">
					<stop  offset="0" style="stop-color:#FEB3B1"/>
					<stop  offset="1" style="stop-color:#FF928E"/>
				</linearGradient>
				
					<circle style="fill:url(#SVGID_00000071524834830504075920000014524179782680325286_);" cx="1055.692" cy="1621.668" r="248.443"/>
				
					<linearGradient id="SVGID_00000072264299204472169390000002108209924231900048_" gradientUnits="userSpaceOnUse" x1="413.5773" y1="-175.0957" x2="-571.8466" y2="1313.5988" gradientTransform="matrix(0.9318 -0.3629 0.3629 0.9318 803.5084 1613.4146)">
					<stop  offset="0" style="stop-color:#FEB3B1"/>
					<stop  offset="1" style="stop-color:#FF928E"/>
				</linearGradient>
				
					<circle style="fill:url(#SVGID_00000072264299204472169390000002108209924231900048_);" cx="1055.692" cy="1621.668" r="240.181"/>
				<path style="fill:#FFFFFF;" d="M836.974,1605.827c-0.796,0.31-1.672,0.445-2.581,0.356c-3.096-0.299-5.365-3.052-5.065-6.143
					c8.284-85.998,63.406-158.884,143.853-190.217c12.845-5.003,26.153-8.852,39.553-11.445c3.052-0.593,6.006,1.403,6.599,4.46
					c0.59,3.052-1.394,6.026-4.463,6.596c-12.736,2.464-25.386,6.128-37.602,10.885c-76.462,29.781-128.853,99.06-136.729,180.796
					C840.329,1603.304,838.893,1605.08,836.974,1605.827z"/>
				
					<ellipse transform="matrix(0.7071 -0.7071 0.7071 0.7071 -837.6082 1227.1257)" style="opacity:0.78;fill:#FFFFFF;" cx="1062.468" cy="1624.645" rx="203.284" ry="203.284"/>
				<g>
					
						<linearGradient id="SVGID_00000039108825914159658830000007438023316629514144_" gradientUnits="userSpaceOnUse" x1="384.1798" y1="-132.4377" x2="-140.533" y2="748.4683" gradientTransform="matrix(0.9318 -0.3629 0.3629 0.9318 803.5084 1613.4146)">
						<stop  offset="0" style="stop-color:#FF928E"/>
						<stop  offset="1" style="stop-color:#FE7062"/>
					</linearGradient>
					<path style="fill:url(#SVGID_00000039108825914159658830000007438023316629514144_);" d="M1098.726,1772.705l-8.027-20.608
						c-21.819,7.507-45.043,10.713-62.708,9.985c-6.308-0.26-11.411-5.238-12.074-11.517l-2.241-21.235
						c-0.822-7.79,5.418-14.415,13.248-14.215c17.416,0.445,37.836-1.789,57.769-9.553c20.692-8.059,33.391-21.085,27.79-35.465
						c-5.054-12.975-19.982-16.047-51.747-12.56c-45.405,4.759-81.833-1.653-95.903-37.778
						c-12.704-32.618,1.448-66.808,40.237-89.589l-8.028-20.611c-2.583-6.632,0.699-14.102,7.331-16.685l12.108-4.716
						c6.632-2.583,14.101,0.699,16.684,7.331l7.207,18.505c20.189-6.947,35.984-9.183,49.04-9.621
						c6.689-0.224,12.373,4.861,13.084,11.516l2.1,19.628c0.81,7.569-5.046,14.169-12.658,14.244
						c-12.131,0.12-28.701,1.779-48.132,9.347c-24.551,9.562-27.603,22.464-24.051,31.583c4.371,11.223,22.106,13.201,57.846,10.592
						c50.921-4.08,77.235,7.482,90.486,41.502c12.157,31.214-0.061,68.287-42.22,92.787l8.983,23.063
						c2.583,6.631-0.699,14.102-7.331,16.684l-12.11,4.717C1108.779,1782.619,1101.309,1779.337,1098.726,1772.705z"/>
				</g>
			</g>
			<g>
				
					<linearGradient id="SVGID_00000170239696603695669990000012732082665839855533_" gradientUnits="userSpaceOnUse" x1="424.8071" y1="633.6777" x2="713.0752" y2="299.0814" gradientTransform="matrix(0.9318 -0.3629 0.3629 0.9318 803.5084 1613.4146)">
					<stop  offset="0" style="stop-color:#FEB3B1"/>
					<stop  offset="1" style="stop-color:#FF928E"/>
				</linearGradient>
				
					<circle style="fill:url(#SVGID_00000170239696603695669990000012732082665839855533_);" cx="1579.461" cy="1624.913" r="214.909"/>
				
					<linearGradient id="SVGID_00000042728494475572554360000001219487381835249294_" gradientUnits="userSpaceOnUse" x1="875.9655" y1="55.0385" x2="23.5486" y2="1342.7972" gradientTransform="matrix(0.9318 -0.3629 0.3629 0.9318 803.5084 1613.4146)">
					<stop  offset="0" style="stop-color:#FEB3B1"/>
					<stop  offset="1" style="stop-color:#FF928E"/>
				</linearGradient>
				
					<circle style="fill:url(#SVGID_00000042728494475572554360000001219487381835249294_);" cx="1579.461" cy="1624.913" r="207.763"/>
				<path style="fill:#FFFFFF;" d="M1390.909,1612.865c-0.939,0.366-1.975,0.525-3.047,0.42c-3.655-0.354-6.334-3.603-5.98-7.253
					c7.232-75.06,55.344-138.677,125.561-166.025c11.213-4.368,22.828-7.728,34.52-9.989c3.605-0.7,7.093,1.656,7.793,5.265
					c0.696,3.604-1.655,7.125-5.267,7.786c-10.908,2.116-21.749,5.251-32.22,9.329c-65.514,25.517-110.402,84.874-117.151,154.903
					C1394.869,1609.887,1393.173,1611.983,1390.909,1612.865z"/>
				
					<ellipse transform="matrix(0.7071 -0.7071 0.7071 0.7071 -686.4778 1597.6725)" style="opacity:0.78;fill:#FFFFFF;" cx="1585.322" cy="1627.488" rx="175.845" ry="175.846"/>
				<g>
					
						<linearGradient id="SVGID_00000074441544675114180720000004154222572487295896_" gradientUnits="userSpaceOnUse" x1="850.5359" y1="91.9392" x2="396.6465" y2="853.9445" gradientTransform="matrix(0.9318 -0.3629 0.3629 0.9318 803.5084 1613.4146)">
						<stop  offset="0" style="stop-color:#FF928E"/>
						<stop  offset="1" style="stop-color:#FE7062"/>
					</linearGradient>
					<path style="fill:url(#SVGID_00000074441544675114180720000004154222572487295896_);" d="M1616.687,1755.563l-6.943-17.826
						c-18.873,6.494-38.963,9.267-54.244,8.638c-5.457-0.225-9.871-4.532-10.444-9.963l-1.939-18.369
						c-0.711-6.739,4.687-12.47,11.46-12.297c15.065,0.385,32.728-1.548,49.971-8.264c17.899-6.971,28.884-18.239,24.04-30.678
						c-4.372-11.225-17.286-13.88-44.763-10.865c-39.276,4.116-70.787-1.431-82.958-32.679
						c-10.99-28.216,1.251-57.791,34.805-77.497l-6.944-17.829c-2.234-5.736,0.605-12.198,6.341-14.432l10.474-4.079
						c5.737-2.234,12.199,0.605,14.433,6.341l6.234,16.007c17.464-6.009,31.127-7.944,42.42-8.323
						c5.786-0.193,10.703,4.206,11.319,9.963l1.817,16.978c0.701,6.548-4.365,12.256-10.95,12.322
						c-10.493,0.104-24.827,1.539-41.636,8.085c-21.237,8.272-23.877,19.432-20.805,27.32c3.781,9.708,19.122,11.42,50.039,9.162
						c44.048-3.529,66.81,6.472,78.272,35.9c10.517,27.001-0.053,59.07-36.522,80.264l7.77,19.95
						c2.234,5.737-0.604,12.198-6.341,14.433l-10.475,4.08C1625.383,1764.14,1618.921,1761.3,1616.687,1755.563z"/>
				</g>
			</g>
			<g>
				
					<linearGradient id="SVGID_00000017518843362312744750000001855908688892418229_" gradientUnits="userSpaceOnUse" x1="-478.3318" y1="720.2377" x2="-234.1634" y2="436.8283" gradientTransform="matrix(0.9318 -0.3629 0.3629 0.9318 803.5084 1613.4146)">
					<stop  offset="0" style="stop-color:#FEB3B1"/>
					<stop  offset="1" style="stop-color:#FF928E"/>
				</linearGradient>
				
					<circle style="fill:url(#SVGID_00000017518843362312744750000001855908688892418229_);" cx="746.358" cy="2098.305" r="182.032"/>
				
					<linearGradient id="SVGID_00000048474066911663814750000002092959246159001517_" gradientUnits="userSpaceOnUse" x1="-96.1924" y1="230.1195" x2="-818.2055" y2="1320.8755" gradientTransform="matrix(0.9318 -0.3629 0.3629 0.9318 803.5084 1613.4146)">
					<stop  offset="0" style="stop-color:#FEB3B1"/>
					<stop  offset="1" style="stop-color:#FF928E"/>
				</linearGradient>
				
					<circle style="fill:url(#SVGID_00000048474066911663814750000002092959246159001517_);" cx="746.358" cy="2098.305" r="175.979"/>
				<path style="fill:#FFFFFF;" d="M586.651,2088.102c-0.796,0.31-1.673,0.445-2.581,0.356c-3.096-0.299-5.365-3.052-5.065-6.143
					c6.125-63.583,46.877-117.468,106.35-140.632c9.48-3.692,19.318-6.538,29.242-8.456c3.054-0.593,6.007,1.403,6.6,4.459
					c0.59,3.052-1.394,6.044-4.461,6.595c-9.26,1.795-18.443,4.45-27.293,7.897c-55.489,21.612-93.511,71.89-99.227,131.211
					C590.005,2085.579,588.569,2087.354,586.651,2088.102z"/>
				
					<ellipse transform="matrix(0.979 -0.2038 0.2038 0.979 -412.3194 197.2086)" style="opacity:0.78;fill:#FFFFFF;" cx="751.322" cy="2100.487" rx="148.944" ry="148.945"/>
				<g>
					
						<linearGradient id="SVGID_00000165948251004791951980000011295445480722067134_" gradientUnits="userSpaceOnUse" x1="-117.7317" y1="261.3748" x2="-502.1848" y2="906.8079" gradientTransform="matrix(0.9318 -0.3629 0.3629 0.9318 803.5084 1613.4146)">
						<stop  offset="0" style="stop-color:#FF928E"/>
						<stop  offset="1" style="stop-color:#FE7062"/>
					</linearGradient>
					<path style="fill:url(#SVGID_00000165948251004791951980000011295445480722067134_);" d="M777.889,2208.969l-5.881-15.099
						c-15.986,5.5-33.003,7.849-45.946,7.316c-4.622-0.191-8.361-3.838-8.846-8.439l-1.642-15.559
						c-0.602-5.708,3.969-10.562,9.707-10.416c12.761,0.326,27.722-1.312,42.326-7c15.161-5.905,24.466-15.449,20.362-25.985
						c-3.703-9.507-14.642-11.757-37.915-9.203c-33.267,3.487-59.958-1.212-70.267-27.679c-9.308-23.899,1.06-48.95,29.481-65.642
						l-5.882-15.101c-1.892-4.859,0.512-10.332,5.371-12.224l8.871-3.455c4.859-1.893,10.333,0.512,12.225,5.371l5.281,13.558
						c14.793-5.09,26.365-6.729,35.93-7.05c4.901-0.164,9.066,3.563,9.587,8.438l1.539,14.381
						c0.593,5.546-3.698,10.381-9.275,10.437c-8.888,0.088-21.029,1.303-35.266,6.848c-17.988,7.006-20.224,16.459-17.622,23.141
						c3.203,8.223,16.197,9.672,42.384,7.761c37.31-2.99,56.59,5.482,66.298,30.408c8.908,22.871-0.045,50.033-30.935,67.985
						l6.581,16.898c1.893,4.859-0.512,10.332-5.371,12.225l-8.873,3.456C785.255,2216.233,779.781,2213.828,777.889,2208.969z"/>
				</g>
			</g>
		</g>
		<g>
			<g>
				<path style="fill:#FFFFFF;" d="M2331.613,3255l-138.254-1448.656c-332.031-122.71-750.687,14.436-750.687,14.436L1378.02,3255
					H2331.613z"/>
				
					<linearGradient id="SVGID_00000153704168552417269490000016716521070900231598_" gradientUnits="userSpaceOnUse" x1="1785.252" y1="2085.5696" x2="1834.0269" y2="1668.2758">
					<stop  offset="0" style="stop-color:#FEB3B1"/>
					<stop  offset="1" style="stop-color:#FF928E"/>
				</linearGradient>
				<path style="fill:url(#SVGID_00000153704168552417269490000016716521070900231598_);" d="M1673.656,1560.929l-6.233,205.636
					c-0.615,20.334,11.996,38.657,31.183,45.425c52.576,18.545,161.421,46.741,264.573,9.808
					c20.808-7.452,33.335-28.752,30.119-50.621l-30.919-210.248H1673.656z"/>
				
					<linearGradient id="SVGID_00000077316021113288869890000002436151509549715126_" gradientUnits="userSpaceOnUse" x1="700.935" y1="2095.4202" x2="2033.4882" y2="4282.0181">
					<stop  offset="0" style="stop-color:#09005D"/>
					<stop  offset="1" style="stop-color:#1A0F91"/>
				</linearGradient>
				<path style="fill:url(#SVGID_00000077316021113288869890000002436151509549715126_);" d="M1732.233,3255
					c36.585-36.579,56.91-62.779,56.91-62.779l-43.306-122.707c0,0-353.69,202.105-469.181,101.051
					c-115.49-101.051,79.404-692.936,79.404-692.936l-281.512-512.49c0,0-236.286,787.776-156.832,1218.258
					c7.648,41.436,43.772,71.601,85.908,71.601H1732.233z"/>
				<polygon style="fill:#FFFFFF;" points="1669.892,1685.035 1830.6,1839.111 1714.549,1918.265 1611.956,1780.177 				"/>
				<polygon style="fill:#FFFFFF;" points="1977.674,1685.035 1816.966,1839.111 1933.017,1918.265 2035.609,1780.177 				"/>
				<g>
					
						<linearGradient id="SVGID_00000125560959806900626910000010668787692011975833_" gradientUnits="userSpaceOnUse" x1="1951.5648" y1="1399.9281" x2="1303.5974" y2="986.6152">
						<stop  offset="0" style="stop-color:#FEB3B1"/>
						<stop  offset="1" style="stop-color:#FF928E"/>
					</linearGradient>
					<path style="fill:url(#SVGID_00000125560959806900626910000010668787692011975833_);" d="M1568.49,1185.587
						c0,0,36.091,368.125,115.491,461.959c0,0,238.198,21.656,324.815-28.872c0,0,61.355-184.061,54.135-429.478
						c0,0,11.829-223.325-234.588-241.807C1539.618,925.735,1568.49,1185.587,1568.49,1185.587z"/>
					
						<linearGradient id="SVGID_00000135651404893190498500000000175365789480367027_" gradientUnits="userSpaceOnUse" x1="2020.2313" y1="1292.2758" x2="1372.2651" y2="878.9636">
						<stop  offset="0" style="stop-color:#FEB3B1"/>
						<stop  offset="1" style="stop-color:#FF928E"/>
					</linearGradient>
					<path style="fill:url(#SVGID_00000135651404893190498500000000175365789480367027_);" d="M2037.668,1301.076
						c0,0,21.655-64.963,57.744-64.963c36.091,0-7.216,173.235-57.744,173.235V1301.076z"/>
					
						<linearGradient id="SVGID_00000080899446620215360030000013011092987943505541_" gradientUnits="userSpaceOnUse" x1="1868.8827" y1="1529.552" x2="1220.9167" y2="1116.2399">
						<stop  offset="0" style="stop-color:#FEB3B1"/>
						<stop  offset="1" style="stop-color:#FF928E"/>
					</linearGradient>
					<path style="fill:url(#SVGID_00000080899446620215360030000013011092987943505541_);" d="M1601.338,1318.137
						c0,0-30.216-61.45-65.979-56.582c-35.76,4.865,30.514,170.678,80.579,163.866L1601.338,1318.137z"/>
					
						<linearGradient id="SVGID_00000085216194426676016740000005710803143417094276_" gradientUnits="userSpaceOnUse" x1="1416.2025" y1="640.5173" x2="2088.5332" y2="1967.0098">
						<stop  offset="0" style="stop-color:#09005D"/>
						<stop  offset="1" style="stop-color:#1A0F91"/>
					</linearGradient>
					<path style="fill:url(#SVGID_00000085216194426676016740000005710803143417094276_);" d="M1593.41,1379.807
						c0,0,8.093,219.891,104.807,331.415c8.876,10.236,21.713,16.189,35.244,16.839c49.366,2.374,175.561,6.618,246.717-7.56
						c17.712-3.529,32.29-16.015,38.118-33.108c17.493-51.284,47.862-132.163,37.417-317.744l-58.048,138.325
						c-43.003,114.31-66.344-24.448-86.314-22.834h-129.926c-13.694,1.105-28.873,86.616-79.611,61.563L1593.41,1379.807z"/>
					
						<linearGradient id="SVGID_00000078020111226964725480000010075865546548757385_" gradientUnits="userSpaceOnUse" x1="1540.483" y1="577.5278" x2="2212.8137" y2="1904.0205">
						<stop  offset="0" style="stop-color:#09005D"/>
						<stop  offset="1" style="stop-color:#1A0F91"/>
					</linearGradient>
					<path style="fill:url(#SVGID_00000078020111226964725480000010075865546548757385_);" d="M1965.488,1098.97
						c0,0-183.903,189.142-384.284,188.406c0,0-113.766-303.896,109.996-354.423c223.76-50.527,230.979,14.435,230.979,14.435
						s257.518-64.549,141.123,306.835L1965.488,1098.97z"/>
				</g>
				
					<linearGradient id="SVGID_00000101805528418363149930000001192859565495573921_" gradientUnits="userSpaceOnUse" x1="1662.6024" y1="1520.104" x2="2981.9673" y2="3685.061">
					<stop  offset="0" style="stop-color:#09005D"/>
					<stop  offset="1" style="stop-color:#1A0F91"/>
				</linearGradient>
				<path style="fill:url(#SVGID_00000101805528418363149930000001192859565495573921_);" d="M2026.466,3255h670.146
					c30.159,0,58.215-15.547,74.192-41.125l0,0c288.732-461.958-122.704-1219.861-122.704-1219.861l-216.547,570.232
					c0,0,187.675,187.672,86.624,483.614c-101.057,295.942-512.487,64.965-512.487,64.965l14.433,137.143
					C2020.124,3249.967,2022.352,3251.799,2026.466,3255z"/>
				<polygon style="fill:#91B3FA;" points="1806.842,1852.278 1746.885,1893.082 1789.146,1975.269 1858.054,1975.269 
					1904.111,1898.864 1825.628,1845.177 				"/>
				<polygon style="fill:#91B3FA;" points="1789.146,1975.269 1742.371,2753.99 1861.326,2969.093 1981.06,2761.756 
					1858.054,1975.269 				"/>
				
					<linearGradient id="SVGID_00000129915233035424224870000014223658991208291506_" gradientUnits="userSpaceOnUse" x1="1080.7234" y1="1863.9714" x2="2413.2722" y2="4050.5625">
					<stop  offset="0" style="stop-color:#09005D"/>
					<stop  offset="1" style="stop-color:#1A0F91"/>
				</linearGradient>
				<path style="fill:url(#SVGID_00000129915233035424224870000014223658991208291506_);" d="M1285.606,2476.948
					c51.204,124.172,75.662,257.742,71.77,391.999L1346.186,3255h542.74l-27.599-549.96l-249.372-924.793
					c-230.98,36.092-537.407,184.894-537.407,184.894L1285.606,2476.948z"/>
				
					<linearGradient id="SVGID_00000020372617653458705090000014784367532954069412_" gradientUnits="userSpaceOnUse" x1="1598.8153" y1="1548.2367" x2="2931.3691" y2="3734.8357">
					<stop  offset="0" style="stop-color:#09005D"/>
					<stop  offset="1" style="stop-color:#1A0F91"/>
				</linearGradient>
				<path style="fill:url(#SVGID_00000020372617653458705090000014784367532954069412_);" d="M2386.121,3255l16.56-320.283
					c0-163.974,27.978-326.746,82.719-481.313l162.7-459.39c-209.322-187.669-621.532-228.614-621.532-228.614l-165.241,939.641
					V3255H2386.121z"/>
				
					<linearGradient id="SVGID_00000147212213148416508670000006088447455684434614_" gradientUnits="userSpaceOnUse" x1="1076.5977" y1="1273.4247" x2="1851.8981" y2="2754.3721">
					<stop  offset="0" style="stop-color:#09005D"/>
					<stop  offset="1" style="stop-color:#1A0F91"/>
				</linearGradient>
				<path style="fill:url(#SVGID_00000147212213148416508670000006088447455684434614_);" d="M1815.605,2672.683
					c-1.117,0-2.229-0.469-3.02-1.381l-222.195-256.25c-0.483-0.553-0.803-1.24-0.925-1.974l-22.396-137.352l-82.235-16.544
					c-1.807-0.367-3.129-1.912-3.203-3.754l-17.684-434.82c-0.09-2.209,1.624-4.066,3.828-4.16c2.29-0.085,4.065,1.624,4.155,3.832
					l17.555,431.685l81.872,16.474c1.631,0.327,2.887,1.631,3.156,3.277l22.658,138.96l221.453,255.399
					c1.443,1.663,1.263,4.191-0.402,5.635C1817.467,2672.363,1816.534,2672.683,1815.605,2672.683z"/>
				
					<linearGradient id="SVGID_00000123413785654242588950000017250132605652908216_" gradientUnits="userSpaceOnUse" x1="1445.9374" y1="1060.4076" x2="2229.5884" y2="2557.3059">
					<stop  offset="0" style="stop-color:#09005D"/>
					<stop  offset="1" style="stop-color:#1A0F91"/>
				</linearGradient>
				<path style="fill:url(#SVGID_00000123413785654242588950000017250132605652908216_);" d="M1890.126,2672.683
					c-0.929,0-1.861-0.323-2.619-0.984c-1.666-1.457-1.845-4.006-0.401-5.683l221.453-257.57l22.657-140.141
					c0.27-1.66,1.527-2.975,3.156-3.305l81.873-16.614l17.554-435.355c0.086-2.227,1.757-3.943,4.156-3.864
					c2.204,0.096,3.917,1.968,3.827,4.196L2224.1,2251.88c-0.074,1.858-1.397,3.417-3.203,3.786l-82.236,16.684l-22.396,138.52
					c-0.12,0.741-0.44,1.433-0.924,1.991l-222.194,258.428C1892.354,2672.21,1891.242,2672.683,1890.126,2672.683z"/>
			</g>
		</g>
	</g>
</g>
</svg>
